<svg xmlns="http://www.w3.org/2000/svg" xmlns:xlink="http://www.w3.org/1999/xlink" width="300" viewBox="0 100 400 500" height="150" preserveAspectRatio="xMidYMid meet" version="1.0"><defs><clipPath id="660a74220e"><path d="M 213.226562 165.84375 L 242.066406 165.84375 L 242.066406 242.863281 L 213.226562 242.863281 Z M 213.226562 165.84375 " clip-rule="nonzero"/></clipPath><clipPath id="9e3435e339"><path d="M 211.589844 164.21875 L 243.695312 164.21875 L 243.695312 244.5 L 211.589844 244.5 Z M 211.589844 164.21875 " clip-rule="nonzero"/></clipPath><clipPath id="004a0b9e9b"><path d="M 165.039062 214.023438 L 242.054688 214.023438 L 242.054688 242.863281 L 165.039062 242.863281 Z M 165.039062 214.023438 " clip-rule="nonzero"/></clipPath><clipPath id="bd25037889"><path d="M 163.410156 212.394531 L 243.695312 212.394531 L 243.695312 244.5 L 163.410156 244.5 Z M 163.410156 212.394531 " clip-rule="nonzero"/></clipPath><clipPath id="017dcfa8a5"><path d="M 132.917969 132.125 L 161.757812 132.125 L 161.757812 209.140625 L 132.917969 209.140625 Z M 132.917969 132.125 " clip-rule="nonzero"/></clipPath><clipPath id="f4b0c87d59"><path d="M 131.292969 130.484375 L 163.398438 130.484375 L 163.398438 210.769531 L 131.292969 210.769531 Z M 131.292969 130.484375 " clip-rule="nonzero"/></clipPath><clipPath id="9eec9f0f9e"><path d="M 132.933594 132.125 L 209.949219 132.125 L 209.949219 160.964844 L 132.933594 160.964844 Z M 132.933594 132.125 " clip-rule="nonzero"/></clipPath><clipPath id="775c4a8992"><path d="M 131.292969 130.484375 L 211.574219 130.484375 L 211.574219 162.589844 L 131.292969 162.589844 Z M 131.292969 130.484375 " clip-rule="nonzero"/></clipPath><clipPath id="1f60f27b92"><path d="M 97.773438 96.964844 L 129.652344 96.964844 L 129.652344 128.847656 L 97.773438 128.847656 Z M 97.773438 96.964844 " clip-rule="nonzero"/></clipPath><clipPath id="7a9d3a5879"><path d="M 96.132812 95.324219 L 131.289062 95.324219 L 131.289062 130.484375 L 96.132812 130.484375 Z M 96.132812 95.324219 " clip-rule="nonzero"/></clipPath><clipPath id="bd5bba5bf2"><path d="M 245.34375 246.152344 L 277.222656 246.152344 L 277.222656 278.03125 L 245.34375 278.03125 Z M 245.34375 246.152344 " clip-rule="nonzero"/></clipPath><clipPath id="65e1805793"><path d="M 243.707031 244.515625 L 278.863281 244.515625 L 278.863281 279.671875 L 243.707031 279.671875 Z M 243.707031 244.515625 " clip-rule="nonzero"/></clipPath></defs><g clip-path="url(#660a74220e)"><path fill="#8765cb" d="M 243.695312 244.476562 L 243.695312 196.351562 C 243.695312 178.617188 229.320312 164.246094 211.585938 164.246094 L 211.585938 212.371094 C 211.585938 230.101562 225.960938 244.476562 243.695312 244.476562 Z M 243.695312 244.476562 " fill-opacity="1" fill-rule="nonzero"/></g><g clip-path="url(#9e3435e339)"><path stroke-linecap="butt" transform="matrix(0, -1.366152, 1.366152, 0, 211.589098, 244.501376)" fill="none" stroke-linejoin="miter" d="M 0.00100717 0.000546019 L 0.00100717 23.501205 L 58.765516 23.501205 L 58.765516 0.000546019 L 0.00100717 0.000546019 " stroke="#8765cb" stroke-width="109.797432" stroke-opacity="1" stroke-miterlimit="4"/></g><g clip-path="url(#004a0b9e9b)"><path fill="#8765cb" d="M 243.667969 244.5 L 195.542969 244.5 C 177.8125 244.5 163.4375 230.125 163.4375 212.394531 L 211.5625 212.394531 C 229.292969 212.394531 243.667969 226.769531 243.667969 244.5 Z M 243.667969 244.5 " fill-opacity="1" fill-rule="nonzero"/></g><g clip-path="url(#bd25037889)"><path stroke-linecap="butt" transform="matrix(-1.366152, 0, 0, -1.366152, 243.694076, 244.501023)" fill="none" stroke-linejoin="miter" d="M -0.000905318 0.000748924 L -0.000905318 23.501408 L 58.766463 23.501408 L 58.766463 0.000748924 L -0.000905318 0.000748924 " stroke="#8765cb" stroke-width="109.797432" stroke-opacity="1" stroke-miterlimit="4"/></g><g clip-path="url(#017dcfa8a5)"><path fill="#8765cb" d="M 131.292969 130.511719 L 131.292969 178.636719 C 131.292969 196.367188 145.667969 210.742188 163.398438 210.742188 L 163.398438 162.617188 C 163.398438 144.886719 149.023438 130.511719 131.292969 130.511719 Z M 131.292969 130.511719 " fill-opacity="1" fill-rule="nonzero"/></g><g clip-path="url(#f4b0c87d59)"><path stroke-linecap="butt" transform="matrix(0, 1.366152, -1.366152, 0, 163.398056, 130.484874)" fill="none" stroke-linejoin="miter" d="M -0.000365136 -0.000279127 L -0.000365136 23.50038 L 58.767003 23.50038 L 58.767003 -0.000279127 L -0.000365136 -0.000279127 " stroke="#8765cb" stroke-width="109.797432" stroke-opacity="1" stroke-miterlimit="4"/></g><g clip-path="url(#9eec9f0f9e)"><path fill="#8765cb" d="M 131.320312 130.484375 L 179.445312 130.484375 C 197.175781 130.484375 211.550781 144.859375 211.550781 162.589844 L 163.425781 162.589844 C 145.691406 162.589844 131.320312 148.214844 131.320312 130.484375 Z M 131.320312 130.484375 " fill-opacity="1" fill-rule="nonzero"/></g><g clip-path="url(#775c4a8992)"><path stroke-linecap="butt" transform="matrix(1.366152, 0, 0, 1.366152, 131.293061, 130.485227)" fill="none" stroke-linejoin="miter" d="M -0.0000678756 -0.00062338 L -0.0000678756 23.500035 L 58.764441 23.500035 L 58.764441 -0.00062338 L -0.0000678756 -0.00062338 " stroke="#8765cb" stroke-width="109.797432" stroke-opacity="1" stroke-miterlimit="4"/></g><g clip-path="url(#1f60f27b92)"><path fill="#8765cb" d="M 113.710938 95.324219 C 123.421875 95.324219 131.289062 103.195312 131.289062 112.90625 L 131.289062 130.484375 L 113.710938 130.484375 C 104 130.484375 96.132812 122.613281 96.132812 112.90625 C 96.132812 103.195312 104 95.324219 113.710938 95.324219 Z M 113.710938 95.324219 " fill-opacity="1" fill-rule="nonzero"/></g><g clip-path="url(#7a9d3a5879)"><path stroke-linecap="butt" transform="matrix(1.366152, 0, 0, 1.366152, 96.133621, 95.325815)" fill="none" stroke-linejoin="miter" d="M -0.000591506 -0.00116809 L -0.000591506 25.735468 L 25.733185 25.735468 L 25.733185 -0.00116809 L -0.000591506 -0.00116809 " stroke="#8765cb" stroke-width="109.797432" stroke-opacity="1" stroke-miterlimit="4"/></g><g clip-path="url(#bd5bba5bf2)"><path fill="#8765cb" d="M 261.285156 279.671875 C 251.574219 279.671875 243.707031 271.804688 243.707031 262.09375 L 243.707031 244.515625 L 261.285156 244.515625 C 270.996094 244.515625 278.863281 252.382812 278.863281 262.09375 C 278.863281 271.804688 270.996094 279.671875 261.285156 279.671875 Z M 261.285156 279.671875 " fill-opacity="1" fill-rule="nonzero"/></g><g clip-path="url(#65e1805793)"><path stroke-linecap="butt" transform="matrix(-1.366152, 0, 0, -1.366152, 278.86399, 279.671818)" fill="none" stroke-linejoin="miter" d="M 0.00051893 -0.0000414047 L 0.00051893 25.733735 L 25.734296 25.733735 L 25.734296 -0.0000414047 L 0.00051893 -0.0000414047 " stroke="#8765cb" stroke-width="109.797432" stroke-opacity="1" stroke-miterlimit="4"/></g></svg>