<svg xmlns="http://www.w3.org/2000/svg" xmlns:xlink="http://www.w3.org/1999/xlink" width="800" zoomAndPan="magnify" viewBox="0 0 375 374.999991" height="500" preserveAspectRatio="xMidYMid meet" version="1.0"><defs><g/><clipPath id="dcf9d61e2e"><path d="M 82 175.613281 L 97.832031 175.613281 L 97.832031 217.894531 L 82 217.894531 Z M 82 175.613281 " clip-rule="nonzero"/></clipPath><clipPath id="231860b8c5"><path d="M 81.101562 174.71875 L 98.726562 174.71875 L 98.726562 218.792969 L 81.101562 218.792969 Z M 81.101562 174.71875 " clip-rule="nonzero"/></clipPath><clipPath id="017ba92a4a"><path d="M 55.546875 202.058594 L 97.828125 202.058594 L 97.828125 217.894531 L 55.546875 217.894531 Z M 55.546875 202.058594 " clip-rule="nonzero"/></clipPath><clipPath id="fc86bc24a0"><path d="M 54.652344 201.167969 L 98.726562 201.167969 L 98.726562 218.792969 L 54.652344 218.792969 Z M 54.652344 201.167969 " clip-rule="nonzero"/></clipPath><clipPath id="4678190c05"><path d="M 37.914062 157.097656 L 53.746094 157.097656 L 53.746094 199.378906 L 37.914062 199.378906 Z M 37.914062 157.097656 " clip-rule="nonzero"/></clipPath><clipPath id="5b3c6c9ba3"><path d="M 37.019531 156.199219 L 54.644531 156.199219 L 54.644531 200.273438 L 37.019531 200.273438 Z M 37.019531 156.199219 " clip-rule="nonzero"/></clipPath><clipPath id="8085c5324a"><path d="M 37.917969 157.101562 L 80.199219 157.101562 L 80.199219 172.933594 L 37.917969 172.933594 Z M 37.917969 157.101562 " clip-rule="nonzero"/></clipPath><clipPath id="4c488a7587"><path d="M 37.019531 156.199219 L 81.09375 156.199219 L 81.09375 173.824219 L 37.019531 173.824219 Z M 37.019531 156.199219 " clip-rule="nonzero"/></clipPath><clipPath id="333309ff3f"><path d="M 18.617188 137.796875 L 36.121094 137.796875 L 36.121094 155.300781 L 18.617188 155.300781 Z M 18.617188 137.796875 " clip-rule="nonzero"/></clipPath><clipPath id="ff8e8b6903"><path d="M 17.71875 136.898438 L 37.019531 136.898438 L 37.019531 156.199219 L 17.71875 156.199219 Z M 17.71875 136.898438 " clip-rule="nonzero"/></clipPath><clipPath id="1e57ca5245"><path d="M 99.632812 219.699219 L 117.132812 219.699219 L 117.132812 237.199219 L 99.632812 237.199219 Z M 99.632812 219.699219 " clip-rule="nonzero"/></clipPath><clipPath id="adc032babb"><path d="M 98.734375 218.800781 L 118.035156 218.800781 L 118.035156 238.101562 L 98.734375 238.101562 Z M 98.734375 218.800781 " clip-rule="nonzero"/></clipPath></defs><g fill="#001639" fill-opacity="1"><g transform="translate(106.246536, 208.144236)"><g><path d="M 20.46875 0 L 14.9375 0 C 14.125 0 13.289062 -0.0703125 12.4375 -0.21875 C 11.582031 -0.375 10.765625 -0.65625 9.984375 -1.0625 C 9.210938 -1.46875 8.519531 -2.050781 7.90625 -2.8125 C 7.300781 -3.582031 6.816406 -4.578125 6.453125 -5.796875 C 6.097656 -7.023438 5.921875 -8.539062 5.921875 -10.34375 L 5.921875 -21.671875 L 0.296875 -21.671875 L 0.296875 -27.171875 L 5.921875 -27.171875 L 5.921875 -35.140625 L 12.3125 -35.1875 L 12.3125 -27.171875 L 20.46875 -27.171875 L 20.46875 -21.671875 L 12.3125 -21.671875 L 12.3125 -10.046875 C 12.3125 -8.773438 12.492188 -7.796875 12.859375 -7.109375 C 13.234375 -6.421875 13.722656 -5.945312 14.328125 -5.6875 C 14.941406 -5.4375 15.585938 -5.3125 16.265625 -5.3125 L 20.46875 -5.3125 Z M 20.46875 0 "/></g></g></g><g fill="#001639" fill-opacity="1"><g transform="translate(124.771313, 208.144236)"><g><path d="M 16.09375 0.8125 C 14.03125 0.8125 12.125 0.441406 10.375 -0.296875 C 8.632812 -1.035156 7.125 -2.0625 5.84375 -3.375 C 4.570312 -4.695312 3.582031 -6.226562 2.875 -7.96875 C 2.175781 -9.71875 1.828125 -11.59375 1.828125 -13.59375 C 1.828125 -15.582031 2.175781 -17.441406 2.875 -19.171875 C 3.582031 -20.910156 4.570312 -22.441406 5.84375 -23.765625 C 7.125 -25.085938 8.632812 -26.125 10.375 -26.875 C 12.125 -27.625 14.039062 -28 16.125 -28 C 18.21875 -28 20.132812 -27.625 21.875 -26.875 C 23.625 -26.125 25.140625 -25.085938 26.421875 -23.765625 C 27.710938 -22.441406 28.710938 -20.910156 29.421875 -19.171875 C 30.128906 -17.441406 30.484375 -15.582031 30.484375 -13.59375 C 30.484375 -11.582031 30.128906 -9.707031 29.421875 -7.96875 C 28.710938 -6.226562 27.710938 -4.695312 26.421875 -3.375 C 25.140625 -2.0625 23.625 -1.035156 21.875 -0.296875 C 20.125 0.441406 18.195312 0.8125 16.09375 0.8125 Z M 16.15625 -5.125 C 17.6875 -5.125 19.050781 -5.488281 20.25 -6.21875 C 21.445312 -6.957031 22.394531 -7.957031 23.09375 -9.21875 C 23.789062 -10.488281 24.140625 -11.945312 24.140625 -13.59375 C 24.140625 -15.226562 23.789062 -16.679688 23.09375 -17.953125 C 22.394531 -19.234375 21.445312 -20.238281 20.25 -20.96875 C 19.050781 -21.707031 17.6875 -22.078125 16.15625 -22.078125 C 14.632812 -22.078125 13.269531 -21.707031 12.0625 -20.96875 C 10.851562 -20.238281 9.898438 -19.234375 9.203125 -17.953125 C 8.515625 -16.679688 8.171875 -15.226562 8.171875 -13.59375 C 8.171875 -11.945312 8.515625 -10.488281 9.203125 -9.21875 C 9.898438 -7.957031 10.851562 -6.957031 12.0625 -6.21875 C 13.269531 -5.488281 14.632812 -5.125 16.15625 -5.125 Z M 16.15625 -5.125 "/></g></g></g><g fill="#001639" fill-opacity="1"><g transform="translate(153.708258, 208.144236)"><g><path d="M 28.6875 0 L 21.5 0 L 14.4375 -12.234375 L 10.15625 -7.5625 L 10.15625 0 L 3.75 0 L 3.75 -37.21875 L 10.15625 -37.21875 L 10.15625 -14.4375 L 19.71875 -27.171875 L 27.515625 -27.171875 L 19.09375 -16.421875 Z M 28.6875 0 "/></g></g></g><g fill="#001639" fill-opacity="1"><g transform="translate(179.315424, 208.144236)"><g><path d="M 29.609375 -14.0625 C 29.609375 -13.726562 29.597656 -13.410156 29.578125 -13.109375 C 29.566406 -12.804688 29.53125 -12.398438 29.46875 -11.890625 L 8.25 -11.890625 C 8.476562 -10.410156 8.945312 -9.148438 9.65625 -8.109375 C 10.375 -7.078125 11.257812 -6.28125 12.3125 -5.71875 C 13.375 -5.164062 14.53125 -4.890625 15.78125 -4.890625 C 17.40625 -4.890625 18.71875 -5.210938 19.71875 -5.859375 C 20.726562 -6.503906 21.460938 -7.394531 21.921875 -8.53125 L 28.890625 -8.53125 C 28.554688 -7.320312 28.003906 -6.148438 27.234375 -5.015625 C 26.472656 -3.890625 25.535156 -2.890625 24.421875 -2.015625 C 23.316406 -1.148438 22.046875 -0.460938 20.609375 0.046875 C 19.171875 0.554688 17.609375 0.8125 15.921875 0.8125 C 13.867188 0.8125 11.984375 0.441406 10.265625 -0.296875 C 8.546875 -1.046875 7.054688 -2.082031 5.796875 -3.40625 C 4.535156 -4.726562 3.554688 -6.257812 2.859375 -8 C 2.171875 -9.75 1.828125 -11.613281 1.828125 -13.59375 C 1.828125 -15.582031 2.171875 -17.441406 2.859375 -19.171875 C 3.554688 -20.910156 4.535156 -22.441406 5.796875 -23.765625 C 7.054688 -25.085938 8.546875 -26.125 10.265625 -26.875 C 11.984375 -27.625 13.867188 -28 15.921875 -28 C 17.960938 -28 19.820312 -27.628906 21.5 -26.890625 C 23.1875 -26.148438 24.632812 -25.128906 25.84375 -23.828125 C 27.050781 -22.535156 27.976562 -21.050781 28.625 -19.375 C 29.28125 -17.695312 29.609375 -15.925781 29.609375 -14.0625 Z M 8.515625 -16.84375 L 23.078125 -16.84375 C 22.992188 -17.863281 22.613281 -18.789062 21.9375 -19.625 C 21.269531 -20.46875 20.40625 -21.144531 19.34375 -21.65625 C 18.289062 -22.164062 17.140625 -22.421875 15.890625 -22.421875 C 14.816406 -22.421875 13.785156 -22.222656 12.796875 -21.828125 C 11.804688 -21.429688 10.9375 -20.820312 10.1875 -20 C 9.4375 -19.175781 8.878906 -18.125 8.515625 -16.84375 Z M 8.515625 -16.84375 "/></g></g></g><g fill="#001639" fill-opacity="1"><g transform="translate(207.010316, 208.144236)"><g><path d="M 10.15625 0 L 3.75 0 L 3.75 -27.171875 L 9.828125 -27.171875 L 9.828125 -22.953125 C 10.359375 -23.929688 11.082031 -24.800781 12 -25.5625 C 12.914062 -26.320312 13.984375 -26.914062 15.203125 -27.34375 C 16.421875 -27.78125 17.722656 -28 19.109375 -28 C 22.753906 -28 25.484375 -26.835938 27.296875 -24.515625 C 29.117188 -22.203125 30.03125 -18.910156 30.03125 -14.640625 L 30.03125 0 L 23.640625 0 L 23.640625 -14.515625 C 23.640625 -17.210938 23.070312 -19.148438 21.9375 -20.328125 C 20.8125 -21.503906 19.28125 -22.09375 17.34375 -22.09375 C 16.09375 -22.09375 14.921875 -21.773438 13.828125 -21.140625 C 12.734375 -20.515625 11.847656 -19.59375 11.171875 -18.375 C 10.492188 -17.15625 10.15625 -15.65625 10.15625 -13.875 Z M 10.15625 0 "/></g></g></g><g fill="#001639" fill-opacity="1"><g transform="translate(237.215749, 208.144236)"><g><path d="M 16.09375 0.8125 C 14.03125 0.8125 12.125 0.441406 10.375 -0.296875 C 8.632812 -1.035156 7.125 -2.0625 5.84375 -3.375 C 4.570312 -4.695312 3.582031 -6.226562 2.875 -7.96875 C 2.175781 -9.71875 1.828125 -11.59375 1.828125 -13.59375 C 1.828125 -15.582031 2.175781 -17.441406 2.875 -19.171875 C 3.582031 -20.910156 4.570312 -22.441406 5.84375 -23.765625 C 7.125 -25.085938 8.632812 -26.125 10.375 -26.875 C 12.125 -27.625 14.039062 -28 16.125 -28 C 18.21875 -28 20.132812 -27.625 21.875 -26.875 C 23.625 -26.125 25.140625 -25.085938 26.421875 -23.765625 C 27.710938 -22.441406 28.710938 -20.910156 29.421875 -19.171875 C 30.128906 -17.441406 30.484375 -15.582031 30.484375 -13.59375 C 30.484375 -11.582031 30.128906 -9.707031 29.421875 -7.96875 C 28.710938 -6.226562 27.710938 -4.695312 26.421875 -3.375 C 25.140625 -2.0625 23.625 -1.035156 21.875 -0.296875 C 20.125 0.441406 18.195312 0.8125 16.09375 0.8125 Z M 16.15625 -5.125 C 17.6875 -5.125 19.050781 -5.488281 20.25 -6.21875 C 21.445312 -6.957031 22.394531 -7.957031 23.09375 -9.21875 C 23.789062 -10.488281 24.140625 -11.945312 24.140625 -13.59375 C 24.140625 -15.226562 23.789062 -16.679688 23.09375 -17.953125 C 22.394531 -19.234375 21.445312 -20.238281 20.25 -20.96875 C 19.050781 -21.707031 17.6875 -22.078125 16.15625 -22.078125 C 14.632812 -22.078125 13.269531 -21.707031 12.0625 -20.96875 C 10.851562 -20.238281 9.898438 -19.234375 9.203125 -17.953125 C 8.515625 -16.679688 8.171875 -15.226562 8.171875 -13.59375 C 8.171875 -11.945312 8.515625 -10.488281 9.203125 -9.21875 C 9.898438 -7.957031 10.851562 -6.957031 12.0625 -6.21875 C 13.269531 -5.488281 14.632812 -5.125 16.15625 -5.125 Z M 16.15625 -5.125 "/></g></g></g><g fill="#001639" fill-opacity="1"><g transform="translate(266.152694, 208.144236)"><g><path d="M 37.0625 -28 C 40.476562 -28 43.03125 -26.835938 44.71875 -24.515625 C 46.414062 -22.203125 47.265625 -18.910156 47.265625 -14.640625 L 47.265625 0 L 40.953125 0 L 40.953125 -14.515625 C 40.953125 -17.191406 40.4375 -19.125 39.40625 -20.3125 C 38.375 -21.5 36.976562 -22.09375 35.21875 -22.09375 C 34.082031 -22.09375 33.007812 -21.75 32 -21.0625 C 31 -20.375 30.191406 -19.414062 29.578125 -18.1875 C 28.960938 -16.957031 28.65625 -15.519531 28.65625 -13.875 L 28.65625 0 L 22.34375 0 L 22.34375 -14.515625 C 22.34375 -17.191406 21.828125 -19.125 20.796875 -20.3125 C 19.765625 -21.5 18.375 -22.09375 16.625 -22.09375 C 15.476562 -22.09375 14.40625 -21.75 13.40625 -21.0625 C 12.414062 -20.375 11.613281 -19.414062 11 -18.1875 C 10.382812 -16.957031 10.078125 -15.519531 10.078125 -13.875 L 10.078125 0 L 3.75 0 L 3.75 -27.171875 L 9.734375 -27.171875 L 9.8125 -22.953125 C 10.28125 -23.921875 10.9375 -24.78125 11.78125 -25.53125 C 12.632812 -26.289062 13.628906 -26.890625 14.765625 -27.328125 C 15.898438 -27.773438 17.140625 -28 18.484375 -28 C 20.753906 -28 22.640625 -27.472656 24.140625 -26.421875 C 25.648438 -25.367188 26.785156 -23.847656 27.546875 -21.859375 C 28.710938 -23.960938 30.101562 -25.507812 31.71875 -26.5 C 33.34375 -27.5 35.125 -28 37.0625 -28 Z M 37.0625 -28 "/></g></g></g><g fill="#001639" fill-opacity="1"><g transform="translate(313.588415, 208.144236)"><g><path d="M 14.625 0.8125 C 12.789062 0.8125 11.09375 0.441406 9.53125 -0.296875 C 7.96875 -1.035156 6.609375 -2.0625 5.453125 -3.375 C 4.304688 -4.695312 3.414062 -6.226562 2.78125 -7.96875 C 2.144531 -9.71875 1.828125 -11.59375 1.828125 -13.59375 C 1.828125 -15.582031 2.144531 -17.441406 2.78125 -19.171875 C 3.425781 -20.910156 4.328125 -22.441406 5.484375 -23.765625 C 6.640625 -25.085938 7.992188 -26.125 9.546875 -26.875 C 11.097656 -27.625 12.78125 -28 14.59375 -28 C 16.8125 -28 18.785156 -27.515625 20.515625 -26.546875 C 22.242188 -25.585938 23.539062 -24.265625 24.40625 -22.578125 L 24.40625 -27.171875 L 30.484375 -27.171875 L 30.484375 0 L 24.40625 0 L 24.40625 -4.578125 C 23.519531 -2.878906 22.21875 -1.554688 20.5 -0.609375 C 18.78125 0.335938 16.820312 0.8125 14.625 0.8125 Z M 16.15625 -5.109375 C 17.257812 -5.109375 18.296875 -5.320312 19.265625 -5.75 C 20.234375 -6.175781 21.082031 -6.773438 21.8125 -7.546875 C 22.550781 -8.316406 23.125 -9.21875 23.53125 -10.25 C 23.9375 -11.28125 24.140625 -12.394531 24.140625 -13.59375 C 24.140625 -14.769531 23.929688 -15.875 23.515625 -16.90625 C 23.097656 -17.9375 22.523438 -18.835938 21.796875 -19.609375 C 21.078125 -20.390625 20.234375 -20.992188 19.265625 -21.421875 C 18.296875 -21.859375 17.257812 -22.078125 16.15625 -22.078125 C 14.6875 -22.078125 13.347656 -21.722656 12.140625 -21.015625 C 10.941406 -20.304688 9.976562 -19.316406 9.25 -18.046875 C 8.53125 -16.785156 8.171875 -15.300781 8.171875 -13.59375 C 8.171875 -11.820312 8.535156 -10.300781 9.265625 -9.03125 C 9.992188 -7.769531 10.96875 -6.800781 12.1875 -6.125 C 13.40625 -5.445312 14.726562 -5.109375 16.15625 -5.109375 Z M 16.15625 -5.109375 "/></g></g></g><g clip-path="url(#dcf9d61e2e)"><path fill="#8765cb" d="M 98.726562 218.777344 L 98.726562 192.359375 C 98.726562 182.625 90.835938 174.734375 81.101562 174.734375 L 81.101562 201.152344 C 81.101562 210.886719 88.992188 218.777344 98.726562 218.777344 Z M 98.726562 218.777344 " fill-opacity="1" fill-rule="nonzero"/></g><g clip-path="url(#231860b8c5)"><path fill="#8765cb" d="M 81.101562 143.792969 L 98.726562 143.792969 L 98.726562 218.792969 L 23.726562 218.792969 L 23.726562 174.71875 L 98.726562 174.71875 L 98.726562 249.71875 L 85.425781 249.71875 L 85.425781 99.71875 L 173.726562 99.71875 L 173.726562 293.792969 L 81.101562 293.792969 Z M 81.101562 143.792969 " fill-opacity="1" fill-rule="nonzero"/></g><g clip-path="url(#017ba92a4a)"><path fill="#8765cb" d="M 98.710938 218.792969 L 72.292969 218.792969 C 62.558594 218.792969 54.667969 210.902344 54.667969 201.167969 L 81.085938 201.167969 C 90.820312 201.167969 98.710938 209.058594 98.710938 218.792969 Z M 98.710938 218.792969 " fill-opacity="1" fill-rule="nonzero"/></g><g clip-path="url(#fc86bc24a0)"><path fill="#8765cb" d="M 23.726562 218.792969 L 23.726562 201.167969 L 98.726562 201.167969 L 98.726562 276.167969 L 54.652344 276.167969 L 54.652344 201.167969 L 129.652344 201.167969 L 129.652344 214.46875 L -20.347656 214.46875 L -20.347656 126.167969 L 173.726562 126.167969 L 173.726562 218.792969 Z M 23.726562 218.792969 " fill-opacity="1" fill-rule="nonzero"/></g><g clip-path="url(#4678190c05)"><path fill="#8765cb" d="M 37.019531 156.214844 L 37.019531 182.632812 C 37.019531 192.367188 44.910156 200.257812 54.644531 200.257812 L 54.644531 173.839844 C 54.644531 164.105469 46.753906 156.214844 37.019531 156.214844 Z M 37.019531 156.214844 " fill-opacity="1" fill-rule="nonzero"/></g><g clip-path="url(#5b3c6c9ba3)"><path fill="#8765cb" d="M 54.644531 231.199219 L 37.019531 231.199219 L 37.019531 156.199219 L 112.019531 156.199219 L 112.019531 200.273438 L 37.019531 200.273438 L 37.019531 125.273438 L 50.320312 125.273438 L 50.320312 275.273438 L -37.980469 275.273438 L -37.980469 81.199219 L 54.644531 81.199219 Z M 54.644531 231.199219 " fill-opacity="1" fill-rule="nonzero"/></g><g clip-path="url(#8085c5324a)"><path fill="#8765cb" d="M 37.035156 156.199219 L 63.453125 156.199219 C 73.1875 156.199219 81.078125 164.089844 81.078125 173.824219 L 54.660156 173.824219 C 44.925781 173.824219 37.035156 165.933594 37.035156 156.199219 Z M 37.035156 156.199219 " fill-opacity="1" fill-rule="nonzero"/></g><g clip-path="url(#4c488a7587)"><path fill="#8765cb" d="M 112.019531 156.199219 L 112.019531 173.824219 L 37.019531 173.824219 L 37.019531 98.824219 L 81.09375 98.824219 L 81.09375 173.824219 L 6.09375 173.824219 L 6.09375 160.523438 L 156.09375 160.523438 L 156.09375 248.824219 L -37.980469 248.824219 L -37.980469 156.199219 Z M 112.019531 156.199219 " fill-opacity="1" fill-rule="nonzero"/></g><g clip-path="url(#333309ff3f)"><path fill="#8765cb" d="M 27.367188 136.898438 C 32.699219 136.898438 37.019531 141.21875 37.019531 146.546875 L 37.019531 156.199219 L 27.367188 156.199219 C 22.035156 156.199219 17.71875 151.878906 17.71875 146.546875 C 17.71875 141.21875 22.035156 136.898438 27.367188 136.898438 Z M 27.367188 136.898438 " fill-opacity="1" fill-rule="nonzero"/></g><g clip-path="url(#ff8e8b6903)"><path fill="#8765cb" d="M 92.71875 136.898438 L 92.71875 156.199219 L 17.71875 156.199219 L 17.71875 81.199219 L 37.019531 81.199219 L 37.019531 156.199219 L -37.980469 156.199219 L -37.980469 136.898438 L 37.019531 136.898438 L 37.019531 211.898438 L 19.921875 211.898438 L 19.921875 61.898438 L 112.019531 61.898438 L 112.019531 231.199219 L -57.28125 231.199219 L -57.28125 136.898438 Z M 92.71875 136.898438 " fill-opacity="1" fill-rule="nonzero"/></g><g clip-path="url(#1e57ca5245)"><path fill="#8765cb" d="M 108.382812 238.101562 C 103.054688 238.101562 98.734375 233.78125 98.734375 228.449219 L 98.734375 218.800781 L 108.382812 218.800781 C 113.714844 218.800781 118.035156 223.121094 118.035156 228.449219 C 118.035156 233.78125 113.714844 238.101562 108.382812 238.101562 Z M 108.382812 238.101562 " fill-opacity="1" fill-rule="nonzero"/></g><g clip-path="url(#adc032babb)"><path fill="#8765cb" d="M 43.035156 238.101562 L 43.035156 218.800781 L 118.035156 218.800781 L 118.035156 293.800781 L 98.734375 293.800781 L 98.734375 218.800781 L 173.734375 218.800781 L 173.734375 238.101562 L 98.734375 238.101562 L 98.734375 163.101562 L 115.832031 163.101562 L 115.832031 313.101562 L 23.734375 313.101562 L 23.734375 143.800781 L 193.035156 143.800781 L 193.035156 238.101562 Z M 43.035156 238.101562 " fill-opacity="1" fill-rule="nonzero"/></g><g fill="#001639" fill-opacity="1"><g transform="translate(345.2909, 181.700483)"><g><path d="M 6.234375 0.25 C 5.585938 0.25 4.972656 0.160156 4.390625 -0.015625 C 3.816406 -0.203125 3.289062 -0.46875 2.8125 -0.8125 C 2.34375 -1.15625 1.9375 -1.554688 1.59375 -2.015625 C 1.25 -2.472656 0.984375 -2.976562 0.796875 -3.53125 C 0.609375 -4.09375 0.515625 -4.679688 0.515625 -5.296875 C 0.515625 -5.910156 0.609375 -6.492188 0.796875 -7.046875 C 0.984375 -7.609375 1.25 -8.117188 1.59375 -8.578125 C 1.9375 -9.046875 2.34375 -9.445312 2.8125 -9.78125 C 3.289062 -10.125 3.816406 -10.382812 4.390625 -10.5625 C 4.972656 -10.75 5.585938 -10.84375 6.234375 -10.84375 C 6.878906 -10.84375 7.488281 -10.75 8.0625 -10.5625 C 8.644531 -10.382812 9.171875 -10.125 9.640625 -9.78125 C 10.117188 -9.445312 10.53125 -9.046875 10.875 -8.578125 C 11.21875 -8.117188 11.484375 -7.609375 11.671875 -7.046875 C 11.859375 -6.492188 11.953125 -5.910156 11.953125 -5.296875 C 11.953125 -4.679688 11.859375 -4.09375 11.671875 -3.53125 C 11.484375 -2.976562 11.21875 -2.472656 10.875 -2.015625 C 10.53125 -1.554688 10.117188 -1.15625 9.640625 -0.8125 C 9.171875 -0.46875 8.644531 -0.203125 8.0625 -0.015625 C 7.488281 0.160156 6.878906 0.25 6.234375 0.25 Z M 6.234375 -0.734375 C 6.867188 -0.734375 7.460938 -0.84375 8.015625 -1.0625 C 8.578125 -1.28125 9.066406 -1.59375 9.484375 -2 C 9.898438 -2.414062 10.222656 -2.898438 10.453125 -3.453125 C 10.691406 -4.015625 10.8125 -4.628906 10.8125 -5.296875 C 10.8125 -5.960938 10.691406 -6.570312 10.453125 -7.125 C 10.222656 -7.6875 9.898438 -8.171875 9.484375 -8.578125 C 9.066406 -8.984375 8.578125 -9.296875 8.015625 -9.515625 C 7.460938 -9.742188 6.867188 -9.859375 6.234375 -9.859375 C 5.609375 -9.859375 5.015625 -9.742188 4.453125 -9.515625 C 3.898438 -9.296875 3.414062 -8.984375 3 -8.578125 C 2.582031 -8.171875 2.253906 -7.6875 2.015625 -7.125 C 1.773438 -6.570312 1.65625 -5.960938 1.65625 -5.296875 C 1.65625 -4.628906 1.773438 -4.015625 2.015625 -3.453125 C 2.253906 -2.898438 2.582031 -2.414062 3 -2 C 3.414062 -1.59375 3.898438 -1.28125 4.453125 -1.0625 C 5.015625 -0.84375 5.609375 -0.734375 6.234375 -0.734375 Z M 6.25 -1.796875 C 5.738281 -1.796875 5.265625 -1.882812 4.828125 -2.0625 C 4.390625 -2.25 4.007812 -2.5 3.6875 -2.8125 C 3.363281 -3.132812 3.113281 -3.503906 2.9375 -3.921875 C 2.757812 -4.347656 2.671875 -4.800781 2.671875 -5.28125 C 2.671875 -5.757812 2.757812 -6.210938 2.9375 -6.640625 C 3.113281 -7.066406 3.363281 -7.441406 3.6875 -7.765625 C 4.007812 -8.085938 4.390625 -8.335938 4.828125 -8.515625 C 5.265625 -8.703125 5.742188 -8.796875 6.265625 -8.796875 C 6.773438 -8.796875 7.207031 -8.710938 7.5625 -8.546875 C 7.925781 -8.378906 8.238281 -8.160156 8.5 -7.890625 L 7.71875 -7.25 C 7.71875 -7.257812 7.6875 -7.289062 7.625 -7.34375 C 7.5625 -7.394531 7.46875 -7.457031 7.34375 -7.53125 C 7.226562 -7.601562 7.082031 -7.664062 6.90625 -7.71875 C 6.726562 -7.769531 6.523438 -7.796875 6.296875 -7.796875 C 5.960938 -7.796875 5.648438 -7.734375 5.359375 -7.609375 C 5.078125 -7.484375 4.828125 -7.304688 4.609375 -7.078125 C 4.398438 -6.847656 4.234375 -6.582031 4.109375 -6.28125 C 3.992188 -5.976562 3.9375 -5.648438 3.9375 -5.296875 C 3.9375 -4.929688 3.992188 -4.597656 4.109375 -4.296875 C 4.234375 -3.992188 4.40625 -3.726562 4.625 -3.5 C 4.84375 -3.28125 5.09375 -3.101562 5.375 -2.96875 C 5.664062 -2.84375 5.976562 -2.78125 6.3125 -2.78125 C 6.550781 -2.78125 6.757812 -2.804688 6.9375 -2.859375 C 7.125 -2.910156 7.273438 -2.96875 7.390625 -3.03125 C 7.515625 -3.101562 7.609375 -3.164062 7.671875 -3.21875 C 7.734375 -3.269531 7.765625 -3.296875 7.765625 -3.296875 L 8.515625 -2.640625 C 8.222656 -2.378906 7.898438 -2.171875 7.546875 -2.015625 C 7.191406 -1.867188 6.757812 -1.796875 6.25 -1.796875 Z M 6.25 -1.796875 "/></g></g></g></svg>